<svg width="24" height="24" viewBox="0 0 24 24" fill="none" xmlns="http://www.w3.org/2000/svg">
<path d="M19.5 20V20.5H20H21C21.1326 20.5 21.2598 20.5527 21.3536 20.6464C21.4473 20.7402 21.5 20.8674 21.5 21C21.5 21.1326 21.4473 21.2598 21.3536 21.3536C21.2598 21.4473 21.1326 21.5 21 21.5H3C2.86739 21.5 2.74021 21.4473 2.64645 21.3536C2.55268 21.2598 2.5 21.1326 2.5 21C2.5 20.8674 2.55268 20.7402 2.64645 20.6464C2.74021 20.5527 2.86739 20.5 3 20.5H4H4.5V20V3C4.5 2.86739 4.55268 2.74021 4.64645 2.64645C4.74022 2.55268 4.86739 2.5 5 2.5H19C19.1326 2.5 19.2598 2.55268 19.3536 2.64645C19.4473 2.74021 19.5 2.86739 19.5 3V20ZM13 20.5H13.5V20V16V15.5H13H11H10.5V16V20V20.5H11H13ZM18 20.5H18.5V20V4V3.5H18H6H5.5V4V20V20.5H6H9H9.5V20V15C9.5 14.8674 9.55268 14.7402 9.64645 14.6464C9.74022 14.5527 9.86739 14.5 10 14.5H14C14.1326 14.5 14.2598 14.5527 14.3536 14.6464C14.4473 14.7402 14.5 14.8674 14.5 15V20V20.5H15H18ZM15 7.5H14C13.8674 7.5 13.7402 7.44732 13.6464 7.35355C13.5527 7.25978 13.5 7.13261 13.5 7C13.5 6.86739 13.5527 6.74022 13.6464 6.64645C13.7402 6.55268 13.8674 6.5 14 6.5H15C15.1326 6.5 15.2598 6.55268 15.3536 6.64645C15.4473 6.74022 15.5 6.86739 15.5 7C15.5 7.13261 15.4473 7.25978 15.3536 7.35355C15.2598 7.44732 15.1326 7.5 15 7.5ZM15 11.5H14C13.8674 11.5 13.7402 11.4473 13.6464 11.3536C13.5527 11.2598 13.5 11.1326 13.5 11C13.5 10.8674 13.5527 10.7402 13.6464 10.6464C13.7402 10.5527 13.8674 10.5 14 10.5H15C15.1326 10.5 15.2598 10.5527 15.3536 10.6464C15.4473 10.7402 15.5 10.8674 15.5 11C15.5 11.1326 15.4473 11.2598 15.3536 11.3536C15.2598 11.4473 15.1326 11.5 15 11.5ZM10 7.5H9C8.86739 7.5 8.74022 7.44732 8.64645 7.35355C8.55268 7.25978 8.5 7.13261 8.5 7C8.5 6.86739 8.55268 6.74022 8.64645 6.64645C8.74022 6.55268 8.86739 6.5 9 6.5H10C10.1326 6.5 10.2598 6.55268 10.3536 6.64645C10.4473 6.74022 10.5 6.86739 10.5 7C10.5 7.13261 10.4473 7.25978 10.3536 7.35355C10.2598 7.44732 10.1326 7.5 10 7.5ZM10 11.5H9C8.86739 11.5 8.74022 11.4473 8.64645 11.3536C8.55268 11.2598 8.5 11.1326 8.5 11C8.5 10.8674 8.55268 10.7402 8.64645 10.6464C8.74022 10.5527 8.86739 10.5 9 10.5H10C10.1326 10.5 10.2598 10.5527 10.3536 10.6464C10.4473 10.7402 10.5 10.8674 10.5 11C10.5 11.1326 10.4473 11.2598 10.3536 11.3536C10.2598 11.4473 10.1326 11.5 10 11.5Z" stroke="#A8A8A8"/>
</svg>
