<svg width="24" height="24" viewBox="0 0 24 24" fill="none" xmlns="http://www.w3.org/2000/svg">
<path d="M6 7.5H6.5V7V4C6.5 3.86739 6.55268 3.74021 6.64645 3.64645C6.74021 3.55268 6.86739 3.5 7 3.5H21C21.1326 3.5 21.2598 3.55268 21.3536 3.64645C21.4473 3.74021 21.5 3.86739 21.5 4V17C21.5 17.9283 21.1313 18.8185 20.4749 19.4749C19.8185 20.1313 18.9283 20.5 18 20.5H5C4.33696 20.5 3.70107 20.2366 3.23223 19.7678C2.76339 19.2989 2.5 18.663 2.5 18V8C2.5 7.86739 2.55268 7.74021 2.64645 7.64645C2.74021 7.55268 2.86739 7.5 3 7.5H6ZM4 8.5H3.5V9V18C3.5 18.3978 3.65804 18.7794 3.93934 19.0607C4.22065 19.342 4.60218 19.5 5 19.5C5.39782 19.5 5.77935 19.342 6.06066 19.0607C6.34196 18.7794 6.5 18.3978 6.5 18V9V8.5H6H4ZM7.35002 18.8294L7.10654 19.5H7.82H18C18.663 19.5 19.2989 19.2366 19.7678 18.7678C20.2366 18.2989 20.5 17.663 20.5 17V5V4.5H20H8H7.5V5V17.9979C7.49754 18.2816 7.44682 18.5627 7.35002 18.8294ZM16 11.5H17C17.1326 11.5 17.2598 11.5527 17.3536 11.6464C17.4473 11.7402 17.5 11.8674 17.5 12C17.5 12.1326 17.4473 12.2598 17.3536 12.3536C17.2598 12.4473 17.1326 12.5 17 12.5H16C15.8674 12.5 15.7402 12.4473 15.6464 12.3536C15.5527 12.2598 15.5 12.1326 15.5 12C15.5 11.8674 15.5527 11.7402 15.6464 11.6464C15.7402 11.5527 15.8674 11.5 16 11.5ZM16 15.5H17C17.1326 15.5 17.2598 15.5527 17.3536 15.6464C17.4473 15.7402 17.5 15.8674 17.5 16C17.5 16.1326 17.4473 16.2598 17.3536 16.3536C17.2598 16.4473 17.1326 16.5 17 16.5H16C15.8674 16.5 15.7402 16.4473 15.6464 16.3536C15.5527 16.2598 15.5 16.1326 15.5 16C15.5 15.8674 15.5527 15.7402 15.6464 15.6464C15.7402 15.5527 15.8674 15.5 16 15.5ZM17 8.5H11C10.8674 8.5 10.7402 8.44732 10.6464 8.35355C10.5527 8.25978 10.5 8.13261 10.5 8C10.5 7.86739 10.5527 7.74022 10.6464 7.64645C10.7402 7.55268 10.8674 7.5 11 7.5H17C17.1326 7.5 17.2598 7.55268 17.3536 7.64645C17.4473 7.74021 17.5 7.86739 17.5 8C17.5 8.13261 17.4473 8.25979 17.3536 8.35355C17.2598 8.44732 17.1326 8.5 17 8.5ZM12 12.5H11C10.8674 12.5 10.7402 12.4473 10.6464 12.3536C10.5527 12.2598 10.5 12.1326 10.5 12C10.5 11.8674 10.5527 11.7402 10.6464 11.6464C10.7402 11.5527 10.8674 11.5 11 11.5H12C12.1326 11.5 12.2598 11.5527 12.3536 11.6464C12.4473 11.7402 12.5 11.8674 12.5 12C12.5 12.1326 12.4473 12.2598 12.3536 12.3536C12.2598 12.4473 12.1326 12.5 12 12.5ZM12 16.5H11C10.8674 16.5 10.7402 16.4473 10.6464 16.3536C10.5527 16.2598 10.5 16.1326 10.5 16C10.5 15.8674 10.5527 15.7402 10.6464 15.6464C10.7402 15.5527 10.8674 15.5 11 15.5H12C12.1326 15.5 12.2598 15.5527 12.3536 15.6464C12.4473 15.7402 12.5 15.8674 12.5 16C12.5 16.1326 12.4473 16.2598 12.3536 16.3536C12.2598 16.4473 12.1326 16.5 12 16.5Z" stroke="#A8A8A8"/>
</svg>
